# xmcd
#
# Track frame offsets:
#   150
#   13794
#   29485
#   47180
#   61653
#   78375
#   93474
#   106989
#   124533
#   137874
#   153796
#   171071
#   192374
#   212538
#   228050
#   244376
#   263078
#   282326
#   297579
#   314950
#
# Disc length: 4409 seconds
#
# Revision: 0
# Processed by: cddbd v1.5.2PL0 Copyright (c) Steve Scherf et al.
# Submitted via: uFREEDB ActiveX Control 1.5
#
DISCID=20113714
DTITLE=Variados - 20 Grandes Sucessos Gaúchos
DYEAR=1900
DGENRE=Country
TTITLE0=Marca de raiz
TTITLE1=Bota de a Pá
TTITLE2=Fandango em Soledade
TTITLE3=Alma do Rio Grande
TTITLE4=Orgulho de Gaúcho
TTITLE5=Loira de Farmácia
TTITLE6=Oito dias da semana
TTITLE7=Quando o verso vem pras casa
TTITLE8=Queixo duro
TTITLE9=Chevettão
TTITLE10=Recuerdos
TTITLE11=É mentira desses loco
TTITLE12=As razões do boca-braba
TTITLE13=CPI da fazenda
TTITLE14=Vaneirinha do amor
TTITLE15=De campo e de mato
TTITLE16=Ocupado
TTITLE17=Juntando os cacos
TTITLE18=Festança nos Medeiros
TTITLE19=Marca Rio Grande
EXTD=
EXTT0=
EXTT1=
EXTT2=
EXTT3=
EXTT4=
EXTT5=
EXTT6=
EXTT7=
EXTT8=
EXTT9=
EXTT10=
EXTT11=
EXTT12=
EXTT13=
EXTT14=
EXTT15=
EXTT16=
EXTT17=
EXTT18=
EXTT19=
PLAYORDER=
